<svg width="11" height="6" viewBox="0 0 11 6" fill="none" xmlns="http://www.w3.org/2000/svg">
<path d="M10.1246 1.15026L10.1236 1.13466L10.1236 1.11903C10.1238 1.06298 10.1042 1.00824 10.0676 0.964337C10.0469 0.939591 10.0214 0.918945 9.9924 0.903731C9.96336 0.888514 9.93145 0.879074 9.89851 0.876056C9.86557 0.873037 9.83237 0.876514 9.80087 0.886245C9.76949 0.895941 9.74052 0.911616 9.71555 0.932232C9.71546 0.932307 9.71537 0.932382 9.71528 0.932457L5.70475 4.26378L5.3913 4.52414L5.07304 4.26969L1.05445 1.05689L1.05445 1.05689L1.05266 1.05545C1.02731 1.03499 0.997969 1.01958 0.96628 1.01025C0.934586 1.00091 0.901284 0.997885 0.868329 1.00137C0.835374 1.00485 0.803558 1.01477 0.774715 1.03043C0.745877 1.04608 0.720647 1.06714 0.700364 1.09223L0.693312 1.10095L0.685876 1.10935C0.663468 1.13466 0.646727 1.16411 0.636531 1.19579C0.626337 1.22746 0.62286 1.2608 0.626268 1.29377C0.629677 1.32674 0.639916 1.3588 0.656476 1.38792C0.673041 1.41705 0.695618 1.4427 0.722954 1.46311L0.72962 1.46809L0.736116 1.47329L5.22616 5.06538L5.22618 5.06536L5.23013 5.0686C5.2745 5.10484 5.33065 5.125 5.38901 5.125C5.44695 5.125 5.5027 5.10513 5.54693 5.06937C5.54725 5.06911 5.54756 5.06885 5.54788 5.0686L10.0353 1.3522L10.0363 1.35138C10.0663 1.32669 10.0897 1.29555 10.1049 1.26066C10.1202 1.22578 10.1269 1.18798 10.1246 1.15026Z" fill="#10B981" stroke="#10B981"/>
</svg>
